<?xml version="1.0" encoding="UTF-8"?>
<svg width="24px" height="24px" viewBox="0 0 24 24" version="1.1" xmlns="http://www.w3.org/2000/svg" xmlns:xlink="http://www.w3.org/1999/xlink">
    <!-- Generator: Sketch 52.1 (67048) - http://www.bohemiancoding.com/sketch -->
    <title>各业态对比</title>
    <desc>Created with Sketch.</desc>
    <defs>
        <polygon id="path-1" points="0 0 20 0 20 20 0 20"></polygon>
    </defs>
    <g id="各业态对比" stroke="none" stroke-width="1" fill="none" fill-rule="evenodd">
        <g id="分组" transform="translate(2.000000, 2.000000)">
            <mask id="mask-2" fill="white">
                <use xlink:href="#path-1"></use>
            </mask>
            <g id="Clip-2"></g>
            <path d="M8.94739141,11.5789365 C8.80776832,11.5789365 8.67395321,11.5235294 8.57526875,11.4248451 C8.47648149,11.3261607 8.42107427,11.192243 8.42107427,11.0526201 L8.42107427,2.17791707 C4.26846286,2.69688361 1.05265998,6.23260978 1.05265998,10.5263807 C1.05265998,15.1773941 4.8226892,18.9474442 9.47373426,18.9474442 C13.76638,18.9474442 17.2905461,15.7305404 17.810053,11.5789365 L8.94739141,11.5789365 Z M18.9474428,11.0526201 C18.9467489,11.1274043 18.9300702,11.2011863 18.8984604,11.268929 C18.5173944,16.1516706 14.4542158,20 9.47373426,20 C4.24155593,20 0,15.7584495 0,10.5263807 C0,5.53102582 3.8684053,1.44837254 8.77160971,1.08789202 C8.82742811,1.06843784 8.88525104,1.05265863 8.94739141,1.05265863 C8.98473218,1.05265863 9.01737001,1.06633052 9.05270624,1.07362905 C9.19315171,1.06792386 9.33156695,1.05265863 9.47373426,1.05265863 L9.47373426,10.5263807 L18.4211257,10.5263807 C18.560646,10.5263807 18.6945639,10.5817879 18.7932483,10.6804722 C18.8919328,10.7791565 18.9474428,10.9130743 18.9474428,11.0526201 Z M11.5789257,1.5789751 L11.5789257,8.42108915 L18.4211257,8.42108915 C18.4211257,4.64209581 15.3578982,1.5789751 11.5789257,1.5789751 Z M10.5263685,9.47374778 L10.5263685,0 C15.7584441,0 20,4.24155047 20,9.47374778 L10.5263685,9.47374778 Z" id="Fill-1" fill="#FFFFFF" mask="url(#mask-2)"></path>
        </g>
    </g>
</svg>