<?xml version="1.0" encoding="UTF-8"?>
<svg width="24px" height="24px" viewBox="0 0 24 24" version="1.1" xmlns="http://www.w3.org/2000/svg" xmlns:xlink="http://www.w3.org/1999/xlink">
    <!-- Generator: Sketch 52.1 (67048) - http://www.bohemiancoding.com/sketch -->
    <title>服装Logo</title>
    <desc>Created with Sketch.</desc>
    <defs>
        <polygon id="path-1" points="0.00334782609 0.00579216354 20.9761915 0.00579216354 20.9761915 16.9721571 0.00334782609 16.9721571"></polygon>
    </defs>
    <g id="服装Logo" stroke="none" stroke-width="1" fill="none" fill-rule="evenodd">
        <g id="分组" transform="translate(1.500000, 4.000000)">
            <polygon id="Fill-1" fill="#FFFFFF" points="18.35577 4 19 4.46915461 15.6443665 8 15 7.53087526"></polygon>
            <polygon id="Fill-2" fill="#FFFFFF" points="2.60995244 4 6 7.48992081 5.39004756 8 2 4.51020329"></polygon>
            <g transform="translate(10.000000, 5.000000)" fill="#FFFFFF">
                <path d="M0,2.3562264 C0,2.4804504 0.1004,2.5952904 0.263345455,2.6573544 C0.4264,2.7195144 0.627272727,2.7195144 0.790327273,2.6573544 C0.953381818,2.5952904 1.05381818,2.4804504 1.05381818,2.3562264 C1.05381818,2.1641304 0.817890909,2.0084184 0.526836364,2.0084184 C0.235781818,2.0084184 0,2.1641304 0,2.3562264" id="Fill-3"></path>
                <path d="M0,0.367776 C0,0.492096 0.1004,0.60684 0.263345455,0.669 C0.4264,0.73116 0.627272727,0.73116 0.790327273,0.669 C0.953381818,0.60684 1.05381818,0.492096 1.05381818,0.367776 C1.05381818,0.17568 0.817890909,0.020064 0.526836364,0.020064 C0.235781818,0.020064 0,0.17568 0,0.367776" id="Fill-7"></path>
            </g>
            <g>
                <g>
                    <mask id="mask-2" fill="white">
                        <use xlink:href="#path-1"></use>
                    </mask>
                    <g id="Clip-12"></g>
                    <path d="M4.89237194,15.8816085 L16.3820557,15.8816085 L15.1605419,7.57463237 C15.1282257,7.35467496 15.2269174,7.13610767 15.4098858,7.02263918 C15.5928542,6.90908382 15.8232731,6.92333254 15.9922138,7.05875332 L17.6173759,8.36117922 L19.7255656,5.63605315 L14.756783,1.34293049 C14.5774668,1.57620988 14.32887,1.86153186 14.0083364,2.1450293 C13.0405933,3.00093731 11.8585617,3.45345009 10.5899292,3.45345009 C8.97871186,3.45345009 7.88355771,2.73510596 7.2484668,2.13246031 C6.96304387,1.86161874 6.74255771,1.58877888 6.58119802,1.36013322 L1.2803996,5.90643135 L3.45795296,8.35408382 L5.02357352,7.06327121 C5.18938775,6.92663407 5.41753794,6.90815707 5.60136403,7.01647053 C5.78532846,7.12481295 5.88864071,7.33851482 5.86302016,7.55777717 L4.89237194,15.8816085 Z M16.989783,16.9721571 L4.30390158,16.9721571 C4.15474348,16.9721571 4.01272372,16.9053445 3.91383834,16.7883428 C3.81495296,16.6714569 3.76869209,16.5157925 3.78673162,16.3608521 L4.67567628,8.73839387 L3.72588972,9.52146542 C3.51298458,9.69699693 3.20700435,9.67238024 3.02229289,9.46467325 L0.139759289,6.22442112 C0.0416209486,6.11422521 -0.00854110672,5.96649608 0.00119802372,5.81613152 C0.0108264822,5.66591175 0.079443083,5.52652334 0.190779051,5.43103952 L6.37487787,0.127039523 C6.49907945,0.0206085179 6.66226522,-0.0223982964 6.81875534,0.0147005111 C6.97505178,0.051567632 7.10528498,0.159417717 7.17379091,0.310795911 C7.18720988,0.338482453 7.43968024,0.851957751 7.97865257,1.35300886 C8.6995419,2.02310426 9.57811107,2.36281465 10.5900399,2.36281465 C11.6100755,2.36281465 12.5239767,2.01797819 13.3062613,1.33794923 C13.9048858,0.817610221 14.2002692,0.28487598 14.203202,0.279547189 C14.2788462,0.138797615 14.4096051,0.041402385 14.561364,0.0118623509 C14.7130123,-0.0176487223 14.8688383,0.0255608177 14.9878383,0.128284838 L20.7868818,5.13885383 C21.0072296,5.32924225 21.0399885,5.66996627 20.860036,5.90246371 L18.1081506,9.45992368 C17.9304945,9.68943816 17.6106802,9.72925928 17.3865142,9.54970221 L16.387451,8.74913833 L17.5006447,16.3192934 C17.5072296,16.3540174 17.5107988,16.3900446 17.5107988,16.4268828 C17.5106881,16.7280463 17.2774747,16.9721571 16.989783,16.9721571 Z" id="Fill-11" fill="#FFFFFF" mask="url(#mask-2)"></path>
                </g>
            </g>
        </g>
    </g>
</svg>