<?xml version="1.0" encoding="UTF-8"?>
<svg width="24px" height="24px" viewBox="0 0 24 24" version="1.1" xmlns="http://www.w3.org/2000/svg" xmlns:xlink="http://www.w3.org/1999/xlink">
    <!-- Generator: Sketch 52.1 (67048) - http://www.bohemiancoding.com/sketch -->
    <title>娱乐 Logo</title>
    <desc>Created with Sketch.</desc>
    <defs>
        <polygon id="path-1" points="0 0.00970027014 19.9902782 0.00970027014 19.9902782 19.943662 0 19.943662"></polygon>
    </defs>
    <g id="娱乐-Logo" stroke="none" stroke-width="1" fill="none" fill-rule="evenodd">
        <g id="分组" transform="translate(2.000000, 2.000000)">
            <g>
                <mask id="mask-2" fill="white">
                    <use xlink:href="#path-1"></use>
                </mask>
                <g id="Clip-2"></g>
                <path d="M9.99508053,18.9469811 C5.02699854,18.9469811 0.999502196,14.9307422 0.999502196,9.97662564 C0.999502196,5.02253825 5.02699854,1.00638697 9.99508053,1.00638697 C14.9631625,1.00638697 18.990776,5.02253825 18.990776,9.97662564 C18.990776,14.9307422 14.9631625,18.9469811 9.99508053,18.9469811 M9.99508053,19.9436678 C15.5154319,19.9436678 19.9902782,15.4813975 19.9902782,9.97662564 C19.9902782,4.47197054 15.5154319,0.00970027014 9.99508053,0.00970027014 C4.47484627,0.00970027014 0,4.47197054 0,9.97662564 C0,15.4813975 4.47484627,19.9436678 9.99508053,19.9436678" id="Fill-1" fill="#444444" mask="url(#mask-2)"></path>
            </g>
            <path d="M5.05291993,11.8792045 C5.49933036,12.770988 6.122031,13.5574437 6.88140345,14.1884485 C7.01980416,14.3065551 7.20957401,14.3392089 7.37806948,14.2739315 C7.54644774,14.2085338 7.66767656,14.0552177 7.69536843,13.8726154 C7.72297238,13.6899529 7.65267314,13.5061179 7.5115472,13.3915291 C6.86021697,12.8503071 6.32601308,12.1756137 5.94310346,11.4106866 C5.81709816,11.1584772 5.51559383,11.0589224 5.26970766,11.1882143 C5.02393871,11.3176265 4.92688532,11.626995 5.05291993,11.8792045 M3.01893054,11.7935411 C3.67116917,13.9940596 5.14209066,15.8422726 7.11284296,16.9379766 C7.35585738,17.0729212 7.65944226,16.9803723 7.79107385,16.7311395 C7.92270544,16.4819068 7.83239187,16.1703433 7.58949466,16.0352483 C5.850387,15.0685957 4.5522393,13.4379239 3.97621923,11.4964102 C3.89244035,11.2302793 3.61634221,11.081774 3.35548192,11.1628671 C3.09450442,11.24387 2.94488045,11.5243433 3.01893054,11.7935411 M10.499133,12.1579038 C9.11808555,12.1579038 7.99860166,11.0090999 7.99860166,9.59203035 C7.99860166,8.17496078 9.11808555,7.0262772 10.499133,7.0262772 C11.8801805,7.0262772 12.9997816,8.17496078 12.9997816,9.59203035 C12.9997816,11.0090999 11.8801805,12.1579038 10.499133,12.1579038 M10.499133,13.184181 C12.4325819,13.184181 14,11.5759097 14,9.59203035 C14,7.60827127 12.4325819,6 10.499133,6 C8.56577206,6 6.99838326,7.60827127 6.99838326,9.59203035 C6.99838326,11.5759097 8.56577206,13.184181 10.499133,13.184181" id="Fill-3" fill="#444444"></path>
        </g>
    </g>
</svg>