<?xml version="1.0" encoding="UTF-8"?>
<svg width="24px" height="24px" viewBox="0 0 24 24" version="1.1" xmlns="http://www.w3.org/2000/svg" xmlns:xlink="http://www.w3.org/1999/xlink">
    <!-- Generator: Sketch 52.1 (67048) - http://www.bohemiancoding.com/sketch -->
    <title>餐饮 copy</title>
    <desc>Created with Sketch.</desc>
    <defs>
        <polygon id="path-1" points="0.00335664336 0.00566929134 19.9925594 0.00566929134 19.9925594 17.9728072 0.00335664336 17.9728072"></polygon>
    </defs>
    <g id="餐饮-copy" stroke="none" stroke-width="1" fill="none" fill-rule="evenodd">
        <g id="分组" transform="translate(2.000000, 3.000000)">
            <g>
                <mask id="mask-2" fill="white">
                    <use xlink:href="#path-1"></use>
                </mask>
                <g id="Clip-2"></g>
                <path d="M17.8156643,15.4288261 C17.8156643,16.325623 17.1156084,17.0445742 16.2306573,17.0445742 L3.75818182,17.0445742 C2.87325874,17.0445742 2.12970629,16.325623 2.12970629,15.4288261 L2.12970629,13.981371 L17.8156643,13.981371 L17.8156643,15.4288261 Z M17.4442797,13.0300072 L2.49574825,13.0300072 C2.29381818,13.0300072 2.13275524,12.948738 2.0246993,12.8214057 C2.46198601,12.6408104 2.78355245,12.2024324 3.09681119,11.768023 C3.10783217,11.7527443 3.11888112,11.7411222 3.12993007,11.7258435 C3.13264336,11.7223002 3.13538462,11.7206561 3.13801399,11.7172261 C3.4681958,11.2880324 3.78036364,10.883982 4.12903497,10.8777742 C4.24497902,10.891834 4.36690909,10.9557269 4.49225175,11.0495254 C4.67667133,11.2002151 4.87686713,11.4297647 5.0732028,11.6550907 C5.58937063,12.2477017 6.17437762,12.9193994 7.0353007,12.9193994 C7.04481119,12.9193994 7.0540979,12.9189458 7.06358042,12.9188324 C7.07309091,12.9189458 7.08248951,12.9195128 7.09222378,12.9195128 C7.94766434,12.9195128 8.53071329,12.2575663 9.04511888,11.6734876 C9.38593007,11.2865868 9.73798601,10.8876387 10.0273287,10.8760167 C10.2757762,10.8863065 10.6031329,11.2314813 10.908979,11.5805679 C10.9378182,11.6154624 10.9665734,11.6503285 10.9950769,11.6853364 C11.4402238,12.2278876 11.941007,12.8383285 12.6749371,12.9122277 C12.7201678,12.917075 12.7662937,12.9195978 12.813035,12.9195978 C12.8147972,12.9195978 12.8165315,12.9195128 12.8184056,12.9195128 C12.8203636,12.9195128 12.8221259,12.9195978 12.8240839,12.9195978 C13.5542937,12.9195978 14.0838042,12.3902277 14.5448951,11.8634939 C14.5986573,11.804023 14.6516643,11.7445521 14.7037762,11.6859883 C15.0422937,11.3062025 15.426014,10.8756765 15.690014,10.8756765 C15.6999441,10.8756765 15.7097902,10.8768954 15.7197203,10.8775474 C15.8999161,10.8992608 16.1062098,11.0723443 16.3131469,11.2927946 C16.3989371,11.3907883 16.4906014,11.5034939 16.5917762,11.6304009 C16.803972,11.8966025 17.0406434,12.1926813 17.3298741,12.4340797 C17.5424056,12.6281679 17.7733706,12.7719978 18.031021,12.8507726 C17.9192448,13.0052041 17.7180979,13.0300072 17.4442797,13.0300072 Z M1.6048951,9.13137732 L18.3876643,9.13137732 C18.7813706,9.13137732 19.0754965,9.76905921 19.0754965,10.3284482 C19.0754965,11.75076 18.8833007,11.9553931 18.5137622,11.9806214 C18.2965594,11.9636986 18.1118881,11.8784324 17.9301818,11.7296135 C17.7543776,11.5650624 17.5718881,11.3464828 17.4011189,11.1404324 C17.274042,10.9871915 17.1423776,10.82916 17.0032727,10.6792356 C16.6732867,10.3028797 16.2861538,9.9727852 15.7554685,9.94744346 C15.7311329,9.9459978 15.7066294,9.94534583 15.6822657,9.94534583 C14.98,9.94534583 14.4852587,10.5199002 14.0068811,11.0755757 C13.9592448,11.130908 13.9113846,11.1864954 13.8633007,11.2414025 C13.5103776,11.6311663 13.152,11.984845 12.8201399,11.989834 C12.7985175,11.989749 12.7768671,11.9881616 12.7554685,11.9853836 C12.4383776,11.9357773 12.0559441,11.4949049 11.7162238,11.1030151 C11.6787692,11.0598151 11.6411748,11.0165584 11.6034685,10.9733301 C11.1862937,10.469075 10.7083636,9.94545921 10.0402238,9.94545921 C10.0360559,9.94545921 10.0319161,9.94577102 10.0277483,9.94588441 C10.0237203,9.94577102 10.0197762,9.94545921 10.0158322,9.94545921 C9.34528671,9.94545921 8.84265734,10.4986403 8.35653147,11.0335663 C7.9408951,11.4908797 7.51146853,11.9633584 7.07244755,11.9889269 C6.63899301,11.9757742 6.2405035,11.5347317 5.81927273,11.0672419 C5.55462937,10.7735726 5.28517483,10.4747159 4.98131469,10.2593962 C4.7431049,10.0822025 4.48327273,9.96207024 4.18651748,9.95002299 C4.15144056,9.94710331 4.11625175,9.94565764 4.08097902,9.94545921 C3.30758042,9.94545921 2.8031049,10.6085962 2.39871329,11.1683254 C2.08598601,11.5745868 1.78855944,11.9532954 1.45924476,11.9867159 C1.13723077,11.963812 0.916951049,11.769582 0.916951049,10.3283348 C0.917062937,9.7691726 1.21121678,9.13137732 1.6048951,9.13137732 Z M4.01334266,2.88795685 C5.64598601,1.62821197 7.77076923,0.934375748 9.99627972,0.934375748 C12.2218182,0.934375748 14.3466014,1.62821197 15.9792448,2.88795685 C17.4217622,4.00100882 18.2831049,5.41167024 18.2831049,6.68062772 C18.2831049,7.74041669 17.5191329,8.20314425 16.7619021,8.20314425 L3.22760839,8.20314425 C2.48131469,8.20314425 1.70945455,7.64086394 1.70945455,6.68062772 C1.70945455,5.41167024 2.5707972,4.00100882 4.01334266,2.88795685 Z M18.6865175,8.2619348 C19.0183497,7.83064346 19.2001678,7.27933323 19.2001678,6.69213638 C19.2001678,5.13483874 18.2037762,3.43626236 16.5347413,2.14851118 C14.7433287,0.76628126 12.4213147,0.00503716535 9.99627972,0.00503716535 C7.57124476,0.00503716535 5.24923077,0.76628126 3.45781818,2.14851118 C1.78878322,3.43626236 0.792391608,5.13483874 0.792391608,6.69213638 C0.792391608,7.24577102 0.983384615,7.80782457 1.33577622,8.25516 C0.56827972,8.41928598 0,9.27619937 0,10.3405238 C0,11.1672198 0.000979020979,12.4702781 1.01124476,12.8262529 C1.0613986,13.0140482 1.13700699,13.1958907 1.25558042,13.3579757 C1.23611189,13.4094813 1.21384615,13.465182 1.21384615,13.5236324 L1.21384615,15.4288261 C1.21384615,16.838212 2.36758042,17.9728072 3.75818182,17.9728072 L16.2306573,17.9728072 C17.6212867,17.9728072 18.7316364,16.8380702 18.7316364,15.4288261 L18.7316364,13.5236324 C18.7316364,13.4921112 18.738965,13.4612986 18.7330629,13.4313931 C18.8573986,13.2632135 18.9476643,13.059686 18.9903776,12.8248356 C19.9864615,12.4739348 19.9925594,11.2165994 19.9925594,10.3405238 C19.9925594,9.2899474 19.4388252,8.44153795 18.6865175,8.2619348 Z" id="Fill-1" fill="#FFFFFF" mask="url(#mask-2)"></path>
            </g>
            <path d="M14.5353376,7 C14.791543,7 15,6.6942389 15,6.31824664 C15,5.94209592 14.791543,5.63633483 14.5353376,5.63633483 C14.2791322,5.63633483 14.0707831,5.94209592 14.0707831,6.31824664 C14.0707831,6.6942389 14.2791322,7 14.5353376,7 M10,7 C10.2560974,7 10.4645545,6.6942389 10.4645545,6.31824664 C10.4645545,5.94209592 10.2560974,5.63633483 10,5.63633483 C9.7437946,5.63633483 9.53533756,5.94209592 9.53533756,6.31824664 C9.53533756,6.6942389 9.7437946,7 10,7 M12.190216,3.36362556 C12.4463135,3.36362556 12.6547705,3.05790408 12.6547705,2.6818722 C12.6547705,2.30587993 12.4464484,2 12.190216,2 C11.9340106,2 11.7255806,2.30587993 11.7255806,2.6818722 C11.7255806,3.05790408 11.9340106,3.36362556 12.190216,3.36362556 M5.46455447,7 C5.72075987,7 5.92918992,6.6942389 5.92918992,6.31824664 C5.92918992,5.94209592 5.72075987,5.63633483 5.46455447,5.63633483 C5.20843005,5.63633483 5,5.94209592 5,6.31824664 C5,6.6942389 5.20843005,7 5.46455447,7 M7.80975697,3.36362556 C8.06588139,3.36362556 8.27431144,3.05790408 8.27431144,2.6818722 C8.27431144,2.30587993 8.06588139,2 7.80975697,2 C7.55355157,2 7.34509452,2.30587993 7.34509452,2.6818722 C7.34509452,3.05790408 7.5534436,3.36362556 7.80975697,3.36362556" id="Fill-3" fill="#FFFFFF"></path>
        </g>
    </g>
</svg>