<?xml version="1.0" encoding="UTF-8"?>
<svg width="24px" height="24px" viewBox="0 0 24 24" version="1.1" xmlns="http://www.w3.org/2000/svg" xmlns:xlink="http://www.w3.org/1999/xlink">
    <!-- Generator: Sketch 52.1 (67048) - http://www.bohemiancoding.com/sketch -->
    <title>超市 Logo</title>
    <desc>Created with Sketch.</desc>
    <defs>
        <polygon id="path-1" points="1.21024948e-16 0 19 0 19 18 1.21024948e-16 18"></polygon>
    </defs>
    <g id="超市-Logo" stroke="none" stroke-width="1" fill="none" fill-rule="evenodd">
        <g id="分组" transform="translate(2.000000, 3.000000)">
            <mask id="mask-2" fill="white">
                <use xlink:href="#path-1"></use>
            </mask>
            <g id="Clip-2"></g>
            <path d="M16.5536396,15.1527662 C16.5536396,15.6540098 16.1309495,16.0618978 15.6113007,16.0618978 C15.0913748,16.0618978 14.6684832,15.6540098 14.6684832,15.1527662 C14.6684832,14.6514977 15.0913748,14.2437097 15.6113007,14.2437097 C16.1309495,14.2437097 16.5536396,14.6514977 16.5536396,15.1527662 Z M5.55082907,16.0618978 C5.03092836,16.0618978 4.60801165,15.6540098 4.60801165,15.1527662 C4.60801165,14.6615625 5.01428166,14.2602929 5.51995335,14.2444839 C5.53030402,14.2446837 5.54050358,14.2451832 5.55082907,14.2451832 C5.55783025,14.2451832 5.56460477,14.2444839 5.57158077,14.2442092 C6.0817856,14.2549233 6.49349538,14.658141 6.49349538,15.1527662 C6.49349538,15.6541097 6.07055349,16.0618978 5.55082907,16.0618978 Z M16.9530343,2.99267652 C16.9886447,2.99267652 17.0113104,3.00331577 17.0226936,3.01150749 L15.1591956,10.5531133 C15.1532773,10.5588574 15.134767,10.5720192 15.1026321,10.57614 L5.9328216,10.5527137 L4.01079573,2.99267652 L16.9530343,2.99267652 Z M5.53443421,11.489767 L15.1211927,11.5142422 L15.1369328,11.5142422 L15.1525721,11.5132682 C15.6085556,11.4861456 15.9888608,11.1983614 16.0988398,10.7970918 L16.1004516,10.7915474 L17.9709256,3.22241941 C18.0423477,2.95286674 17.9807977,2.67035216 17.8015373,2.44625356 C17.6055797,2.20110124 17.2884111,2.0546492 16.9531351,2.0546492 L3.77230223,2.0546492 L3.24993348,0 L0.486456215,0 C0.217792159,0 0,0.2100378 0,0.46905112 C0,0.72816434 0.217792159,0.938102241 0.486456215,0.938102241 L2.48665356,0.938102241 L4.95411683,10.6435469 C4.18925031,10.8860769 3.6352755,11.5808749 3.6352755,12.3984989 C3.6352755,12.9453214 3.88316267,13.4369997 4.27608511,13.7754328 C3.88298638,14.1139657 3.6349733,14.6059437 3.6349733,15.1528412 C3.6349733,16.1713622 4.49438095,17 5.55082907,17 C6.60710089,17 7.46640781,16.1713622 7.46640781,15.1528412 C7.46640781,14.822425 7.37551837,14.5122883 7.21731181,14.2437097 L13.9445157,14.2437097 C13.7862336,14.5122883 13.6954449,14.822425 13.6954449,15.1528412 C13.6954449,16.1713622 14.5548777,17 15.6113007,17 C16.6674717,17 17.5266024,16.1713622 17.5266024,15.1528412 C17.5266024,14.1342453 16.6674717,13.3057073 15.6113007,13.3057073 L5.55082907,13.3057073 C5.54050358,13.3057073 5.53030402,13.3062817 5.51985261,13.3063816 C5.0143824,13.2905726 4.60818793,12.8895028 4.60818793,12.3984989 C4.60818793,11.9025249 5.02216429,11.4982334 5.53443421,11.489767 Z" id="Fill-1" fill="#FFFFFF" mask="url(#mask-2)"></path>
        </g>
    </g>
</svg>