<?xml version="1.0" encoding="UTF-8"?>
<svg width="24px" height="24px" viewBox="0 0 24 24" version="1.1" xmlns="http://www.w3.org/2000/svg" xmlns:xlink="http://www.w3.org/1999/xlink">
    <!-- Generator: Sketch 52.1 (67048) - http://www.bohemiancoding.com/sketch -->
    <title>配套服务 Logo</title>
    <desc>Created with Sketch.</desc>
    <defs>
        <polygon id="path-1" points="0.00309677419 0.0153891753 19.9855819 0.0153891753 19.9855819 19.9752345 0.00309677419 19.9752345"></polygon>
    </defs>
    <g id="配套服务-Logo" stroke="none" stroke-width="1" fill="none" fill-rule="evenodd">
        <g id="分组" transform="translate(2.000000, 2.000000)">
            <g>
                <mask id="mask-2" fill="white">
                    <use xlink:href="#path-1"></use>
                </mask>
                <g id="Clip-2"></g>
                <path d="M10.0360852,19.0547448 C4.9166529,19.0789974 0.897375484,15.0622191 0.921685161,9.95216753 C0.946072258,4.88794072 4.9166529,0.938610825 9.99285935,0.938610825 C15.0824594,0.938610825 19.0368852,4.9121933 19.0368852,9.99799227 C19.0368852,15.0649253 15.1067432,19.0304923 10.0360852,19.0547448 M19.1990787,6.11075 C18.6962658,4.92306959 17.9746142,3.85399742 17.0583561,2.93894588 C16.1420206,2.02379124 15.0716723,1.30304381 13.8823561,0.800981959 C12.6497884,0.279976804 11.3415303,0.0153891753 9.99285935,0.0153891753 C8.64405935,0.0153891753 7.33580129,0.279976804 6.10323355,0.800981959 C4.91402065,1.30304381 3.84356903,2.02379124 2.92733677,2.93894588 C2.01100129,3.85399742 1.28932387,4.92306959 0.786588387,6.11075 C0.264936774,7.34172938 7.74193548e-06,8.64830155 7.74193548e-06,9.9953634 C7.74193548e-06,11.3423222 0.264936774,12.6488943 0.786588387,13.8798737 C1.28932387,15.0676572 2.01100129,16.1366263 2.92733677,17.0517809 C3.84356903,17.9668325 4.91402065,18.6875799 6.10323355,19.1897448 C7.33580129,19.71075 8.64405935,19.9752345 9.99285935,19.9752345 C11.3415303,19.9752345 12.6497884,19.71075 13.8823561,19.1897448 C15.0716723,18.6875799 16.1420206,17.9668325 17.0583561,17.0517809 C17.9746142,16.1366263 18.6962658,15.0676572 19.1990787,13.8798737 C19.7207561,12.6488943 19.9855819,11.3423222 19.9855819,9.9953634 C19.9855819,8.64830155 19.7207561,7.34172938 19.1990787,6.11075" id="Fill-1" fill="#444444" mask="url(#mask-2)"></path>
            </g>
            <g transform="translate(4.000000, 7.000000)" fill="#444444">
                <path d="M11.4873469,5.97046098 L0.49755102,5.97046098 C0.223945578,5.97046098 0.00446258503,6.20036341 0.00446258503,6.48131463 C0.00446258503,6.7623878 0.226721088,6.99229024 0.49755102,6.99229024 L11.4873469,6.99229024 C11.7609524,6.99229024 11.9803265,6.7623878 11.9803265,6.48131463 C11.9803265,6.19777805 11.7609524,5.97046098 11.4873469,5.97046098" id="Fill-3"></path>
                <path d="M11.4873469,3.10670244 L0.49755102,3.10670244 C0.223945578,3.10670244 0.00446258503,3.33658049 0.00446258503,3.61765366 C0.00446258503,3.89860488 0.226721088,4.12853171 0.49755102,4.12853171 L11.4873469,4.12853171 C11.7609524,4.12853171 11.9803265,3.89860488 11.9803265,3.61765366 C11.9803265,3.33658049 11.7609524,3.10670244 11.4873469,3.10670244" id="Fill-5"></path>
                <path d="M11.4873469,0.0232439024 L0.49755102,0.0232439024 C0.223945578,0.0232439024 0.00446258503,0.253243902 0.00446258503,0.534195122 C0.00446258503,0.815170732 0.226721088,1.04514634 0.49755102,1.04514634 L11.4873469,1.04514634 C11.7609524,1.04514634 11.9803265,0.815170732 11.9803265,0.534195122 C11.9803265,0.253243902 11.7609524,0.0232439024 11.4873469,0.0232439024" id="Fill-7"></path>
            </g>
        </g>
    </g>
</svg>