<?xml version="1.0" encoding="UTF-8"?>
<svg width="52px" height="52px" viewBox="0 0 52 52" version="1.1" xmlns="http://www.w3.org/2000/svg" xmlns:xlink="http://www.w3.org/1999/xlink">
    <!-- Generator: Sketch 52.1 (67048) - http://www.bohemiancoding.com/sketch -->
    <title>客流变化</title>
    <desc>Created with Sketch.</desc>
    <defs>
        <polygon id="path-1" points="0 0.1772 36 0.1772 36 21 0 21"></polygon>
    </defs>
    <g id="客流变化" stroke="none" stroke-width="1" fill="none" fill-rule="evenodd">
        <g id="Group-10" transform="translate(7.000000, 4.000000)">
            <path d="M10.2427,21.7183 C4.1847,24.6153 -0.0003,30.8023 -0.0003,37.9653" id="Stroke-1" stroke="#444444" stroke-width="4" stroke-linecap="round"></path>
            <path d="M6.6392,12.4868 C6.5062,12.1718 6.3882,11.8478 6.2862,11.5168 C6.0942,10.8858 5.9612,10.2258 5.8952,9.5438 C5.5122,5.5738 7.5052,1.9228 10.7132,-0.0002" id="Stroke-3" stroke="#444444" stroke-width="4" stroke-linecap="round"></path>
            <path d="M11.625,10.6226 C11.625,16.1446 16.102,20.6226 21.625,20.6226 C27.148,20.6226 31.625,16.1446 31.625,10.6226 C31.625,5.0996 27.148,0.6226 21.625,0.6226 C16.102,0.6226 11.625,5.0996 11.625,10.6226 Z M27.625,10.6226 C27.625,13.9306 24.934,16.6226 21.625,16.6226 C18.316,16.6226 15.625,13.9306 15.625,10.6226 C15.625,7.3136 18.316,4.6226 21.625,4.6226 C24.934,4.6226 27.625,7.3136 27.625,10.6226 Z" id="Fill-5" fill="#444444"></path>
            <g id="Group-9" transform="translate(5.000000, 23.788100)">
                <mask id="mask-2" fill="white">
                    <use xlink:href="#path-1"></use>
                </mask>
                <g id="Clip-8"></g>
                <path d="M0,18.1772 C0.004,19.8092 1.349,21.0002 2.83,21.0002 C3.161,21.0002 3.5,20.9402 3.831,20.8122 C8.228,19.1132 13.004,18.1772 18,18.1772 C22.996,18.1772 27.772,19.1132 32.169,20.8122 C32.5,20.9402 32.839,21.0002 33.17,21.0002 C34.651,21.0002 35.996,19.8092 36,18.2202 C36,8.2372 27.941,0.1772 18,0.1772 C8.059,0.1772 0,8.2372 0,18.1772 Z M31.892,16.4572 C27.424,14.9442 22.76,14.1772 18,14.1772 C13.239,14.1772 8.574,14.9442 4.105,16.4592 C4.955,9.5472 10.862,4.1772 18,4.1772 C25.129,4.1772 31.03,9.5332 31.892,16.4572 Z" id="Fill-7" fill="#444444" mask="url(#mask-2)"></path>
            </g>
        </g>
    </g>
</svg>