<?xml version="1.0" encoding="UTF-8"?>
<svg width="52px" height="52px" viewBox="0 0 52 52" version="1.1" xmlns="http://www.w3.org/2000/svg" xmlns:xlink="http://www.w3.org/1999/xlink">
    <!-- Generator: Sketch 52.1 (67048) - http://www.bohemiancoding.com/sketch -->
    <title>出租率</title>
    <desc>Created with Sketch.</desc>
    <g id="出租率" stroke="none" stroke-width="1" fill="none" fill-rule="evenodd">
        <g id="Group-13">
            <path d="M23.1345957,46.106383 L8.6519,46.106383 C6.63498696,46.106383 4.99972609,44.5059149 4.99972609,42.5319149 L4.99972609,8.57446809 C4.99972609,6.60046809 6.63498696,5 8.6519,5 L43.3475522,5 C45.3644652,5 46.9997261,6.60046809 46.9997261,8.57446809 L46.9997261,25.874" id="Stroke-1" stroke="#444444" stroke-width="4" stroke-linecap="round"></path>
            <path d="M13.4335087,18.8371234 L38.3139435,18.8371234" id="Stroke-3" stroke="#444444" stroke-width="4" stroke-linecap="round"></path>
            <path d="M13.4335087,30.4541447 L28.3215957,30.4541447" id="Stroke-5" stroke="#444444" stroke-width="4" stroke-linecap="round"></path>
            <path d="M43.9634,35.3882511 L34.7042261,44.4504213" id="Stroke-7" stroke="#444444" stroke-width="4" stroke-linecap="round"></path>
            <path d="M34.7304304,33.6263064 C33.7224304,33.6263064 32.9043435,34.4269872 32.9043435,35.4135404 C32.9043435,36.4000936 33.7224304,37.2007745 34.7304304,37.2007745 C35.7384304,37.2007745 36.5565174,36.4000936 36.5565174,35.4135404 C36.5565174,34.4269872 35.7384304,33.6263064 34.7304304,33.6263064" id="Fill-9" fill="#444444"></path>
            <path d="M43.8987565,42.6000085 C42.8907565,42.6000085 42.0726696,43.4006894 42.0726696,44.3872426 C42.0726696,45.3737957 42.8907565,46.1744766 43.8987565,46.1744766 C44.9067565,46.1744766 45.7248435,45.3737957 45.7248435,44.3872426 C45.7248435,43.4006894 44.9067565,42.6000085 43.8987565,42.6000085" id="Fill-11" fill="#444444"></path>
        </g>
    </g>
</svg>