<?xml version="1.0" encoding="UTF-8"?>
<svg width="28px" height="28px" viewBox="0 0 28 28" version="1.1" xmlns="http://www.w3.org/2000/svg" xmlns:xlink="http://www.w3.org/1999/xlink">
    <!-- Generator: Sketch 51.2 (57519) - http://www.bohemiancoding.com/sketch -->
    <title>系统设置</title>
    <desc>Created with Sketch.</desc>
    <defs></defs>
    <g id="Aurelia-Web-(Light)" stroke="none" stroke-width="1" fill="none" fill-rule="evenodd" stroke-linecap="round">
        <g id="项目监测-" transform="translate(-43.000000, -847.000000)" stroke="#444444" stroke-width="2">
            <g id="系统设置" transform="translate(43.000000, 847.000000)">
                <path d="M12.4090909,7.56823409 L26,7.56823409" id="Stroke-1"></path>
                <path d="M3,7.56823409 L4.04545455,7.56823409" id="Stroke-3"></path>
                <path d="M16.5909091,14.8864159 L26,14.8864159" id="Stroke-5" stroke-linejoin="round"></path>
                <path d="M3,14.8864159 L8.22727273,14.8864159" id="Stroke-7" stroke-linejoin="round"></path>
                <path d="M24.9545455,22.2045977 L26,22.2045977" id="Stroke-9"></path>
                <path d="M3,22.2045977 L16.5909091,22.2045977" id="Stroke-11"></path>
                <path d="M9.79545455,7.56823409 C9.79545455,8.43439318 9.09343182,9.13641591 8.22727273,9.13641591 C7.36111364,9.13641591 6.65909091,8.43439318 6.65909091,7.56823409 C6.65909091,6.702075 7.36111364,6.00005227 8.22727273,6.00005227 C9.09343182,6.00005227 9.79545455,6.702075 9.79545455,7.56823409 Z" id="Stroke-13" stroke-linejoin="round"></path>
                <path d="M13.9772727,14.8864159 C13.9772727,15.752575 13.27525,16.4545977 12.4090909,16.4545977 C11.5429318,16.4545977 10.8409091,15.752575 10.8409091,14.8864159 C10.8409091,14.0202568 11.5429318,13.3182341 12.4090909,13.3182341 C13.27525,13.3182341 13.9772727,14.0202568 13.9772727,14.8864159 Z" id="Stroke-15"></path>
                <path d="M22.3409091,22.2045977 C22.3409091,23.0707568 21.6388864,23.7727795 20.7727273,23.7727795 C19.9065682,23.7727795 19.2045455,23.0707568 19.2045455,22.2045977 C19.2045455,21.3384386 19.9065682,20.6364159 20.7727273,20.6364159 C21.6388864,20.6364159 22.3409091,21.3384386 22.3409091,22.2045977 Z" id="Stroke-17" stroke-linejoin="round"></path>
            </g>
        </g>
    </g>
</svg>