<?xml version="1.0" encoding="UTF-8"?>
<svg width="28px" height="28px" viewBox="0 0 28 28" version="1.1" xmlns="http://www.w3.org/2000/svg" xmlns:xlink="http://www.w3.org/1999/xlink">
    <!-- Generator: Sketch 52.1 (67048) - http://www.bohemiancoding.com/sketch -->
    <title>项目监测 </title>
    <desc>Created with Sketch.</desc>
    <g id="Page-1" stroke="none" stroke-width="1" fill="none" fill-rule="evenodd" stroke-linecap="round">
        <g id="项目监测-" transform="translate(-46.000000, -661.000000)" stroke-width="2">
            <g id="分组" transform="translate(46.000000, 661.000000)">
                <path d="M24.08,21 L3.92,21 C2.864,21 2,20.1 2,19 L2,15 C2,13.9 2.864,13 3.92,13 L24.25424,13 C25.21424,13 26,13.818 26,14.818 L26,19 C26,20.1 25.136,21 24.08,21 Z" id="Stroke-1" stroke="#444444"></path>
                <path d="M3.92,13 L6.77532186,6.90498869 C7.21171022,5.99535659 7.63191842,5 8.67886977,5 L19.1483833,5 C20.1953346,5 20.5960314,6.01488272 21.0519312,6.90498869 L24.08,13" id="Stroke-3" stroke="#444444"></path>
                <path d="M7.76,17 C7.76,17.552 7.32992,18 6.8,18 C6.27008,18 5.84,17.552 5.84,17 C5.84,16.448 6.27008,16 6.8,16 C7.32992,16 7.76,16.448 7.76,17 Z" id="Stroke-5" stroke="#3FA9F5"></path>
                <path d="M22.16,17 C22.16,17.552 21.72992,18 21.2,18 C20.67008,18 20.24,17.552 20.24,17 C20.24,16.448 20.67008,16 21.2,16 C21.72992,16 22.16,16.448 22.16,17 Z" id="Stroke-7" stroke="#3FA9F5"></path>
                <path d="M4.4,21 L4.4,24" id="Stroke-9" stroke="#444444"></path>
                <path d="M22.64,21 L22.64,24" id="Stroke-11" stroke="#444444"></path>
            </g>
        </g>
    </g>
</svg>