<?xml version="1.0" encoding="UTF-8"?>
<svg width="28px" height="28px" viewBox="0 0 28 28" version="1.1" xmlns="http://www.w3.org/2000/svg" xmlns:xlink="http://www.w3.org/1999/xlink">
    <!-- Generator: Sketch 52.1 (67048) - http://www.bohemiancoding.com/sketch -->
    <title>项目监测 </title>
    <desc>Created with Sketch.</desc>
    <g id="Page-1" stroke="none" stroke-width="1" fill="none" fill-rule="evenodd" stroke-linecap="round">
        <g id="项目监测-" transform="translate(-46.000000, -240.000000)" stroke-width="2">
            <g id="分组" transform="translate(46.000000, 240.000000)">
                <path d="M25.5111484,10.8716094 L14.287005,16.8874311 C14.013378,17.0338864 13.683445,17.037766 13.4063605,16.8971301 L1.50753378,10.8590006 C0.837789519,10.5185648 0.828899109,9.58115377 1.49271643,9.22907908 L13.0329632,3.11093263 C13.3115294,2.96302246 13.6468955,2.96302246 13.9249678,3.11093263 L25.5071971,9.25138684 C26.1626179,9.59861202 26.1645936,10.5209895 25.5111484,10.8716094 Z" id="Stroke-1" stroke="#444444"></path>
                <path d="M26,15.0118464 L14.3099446,20.890007 C14.0249594,21.033111 13.6813309,21.0369018 13.3927447,20.8994841 L1,15" id="Stroke-3" stroke="#3FA9F5"></path>
                <path d="M26,19.0118464 L14.3099446,24.890007 C14.0249594,25.033111 13.6813309,25.0369018 13.3927447,24.8994841 L1,19" id="Stroke-5" stroke="#444444"></path>
            </g>
        </g>
    </g>
</svg>