<?xml version="1.0" encoding="UTF-8"?>
<svg width="28px" height="28px" viewBox="0 0 28 28" version="1.1" xmlns="http://www.w3.org/2000/svg" xmlns:xlink="http://www.w3.org/1999/xlink">
    <!-- Generator: Sketch 51.2 (57519) - http://www.bohemiancoding.com/sketch -->
    <title>店铺详情</title>
    <desc>Created with Sketch.</desc>
    <defs></defs>
    <g id="Aurelia-Web-(Light)" stroke="none" stroke-width="1" fill="none" fill-rule="evenodd" stroke-linecap="round">
        <g id="店铺详情" transform="translate(-36.000000, -362.000000)" stroke-width="2">
            <g transform="translate(36.000000, 362.000000)">
                <path d="M10.1316408,10.76665 C9.97539592,12.91665 8.21751837,14.61115 6.07123265,14.61115 C3.82306939,14.61115 2.00004898,12.75065 2.00004898,10.45515 C2.00004898,9.76415 2.1651102,9.11215 2.45751837,8.53865" id="Stroke-1" stroke="#3FA9F5"></path>
                <path d="M25.3741388,8.56915 C25.656751,9.13515 25.8164245,9.77615 25.8164245,10.45515 C25.8164245,12.75065 23.9934041,14.61115 21.744751,14.61115 C19.5989551,14.61115 17.8410776,12.91665 17.6848327,10.76665" id="Stroke-3" stroke="#3FA9F5"></path>
                <path d="M17.6168,10.76765 C17.6168,12.89065 15.9309224,14.61115 13.8517388,14.61115 C11.7720653,14.61115 10.0861878,12.89065 10.0861878,10.76765" id="Stroke-5" stroke="#3FA9F5"></path>
                <path d="M2.45702857,8.53865 L5.07841633,3.52665 C5.24788571,3.20265 5.57898776,3.00015 5.93849796,3.00015 L21.459151,3.00015 C21.800049,3.00015 22.1159673,3.17965 22.2952327,3.47515 L25.3829061,8.56465" id="Stroke-7" stroke="#3FA9F5"></path>
                <path d="M7.97394286,7.5599 L19.7290449,7.5784" id="Stroke-9" stroke="#444444"></path>
                <path d="M23.6474122,17.84015 L23.6474122,20.86115 C23.6474122,22.51115 22.2554122,23.86115 20.5538612,23.86115 L7.14912653,23.86115 C5.44757551,23.86115 4.05557551,22.51115 4.05557551,20.86115 L4.05557551,17.84015" id="Stroke-11" stroke="#444444"></path>
            </g>
        </g>
    </g>
</svg>