<?xml version="1.0" encoding="UTF-8"?>
<svg width="28px" height="28px" viewBox="0 0 28 28" version="1.1" xmlns="http://www.w3.org/2000/svg" xmlns:xlink="http://www.w3.org/1999/xlink">
    <!-- Generator: Sketch 51.2 (57519) - http://www.bohemiancoding.com/sketch -->
    <title>异常列表</title>
    <desc>Created with Sketch.</desc>
    <defs></defs>
    <g id="Aurelia-Web-(Light)" stroke="none" stroke-width="1" fill="none" fill-rule="evenodd">
        <g id="异常列表-" transform="translate(-36.000000, -416.000000)" stroke-width="2">
            <g id="异常列表" transform="translate(36.000000, 416.000000)">
                <path d="M20.893617,14.1915404 C20.893617,11.8155404 22.7211915,9.84498723 25.0405106,9.61775319 C25.2968511,9.59273191 25.4893617,9.37111489 25.4893617,9.11324255 L25.4893617,7.04260426 C25.4893617,5.9192 24.5702128,5.00005106 23.4468085,5.00005106 L4.04255319,5.00005106 C2.91914894,5.00005106 2,5.9192 2,7.04260426 L2,21.3404766 C2,22.4638809 2.91914894,23.3830298 4.04255319,23.3830298 L23.4468085,23.3830298 C24.5702128,23.3830298 25.4893617,22.4638809 25.4893617,21.3404766 L25.4893617,19.2698383 C25.4893617,19.011966 25.2968511,18.7903489 25.0405106,18.7653277 C22.7211915,18.537583 20.893617,16.5675404 20.893617,14.1915404 Z" id="Stroke-1" stroke="#444444"></path>
                <path d="M25.4893617,14.7021787 C25.7702128,14.7021787 26,14.4723915 26,14.1915404 C26,13.9106894 25.7702128,13.6809021 25.4893617,13.6809021 C25.2085106,13.6809021 24.9787234,13.9106894 24.9787234,14.1915404 C24.9787234,14.4723915 25.2085106,14.7021787 25.4893617,14.7021787 Z" id="Stroke-3" stroke="#444444" fill="#EEEEEE"></path>
                <path d="M6.08510638,10.106434 L6.08510638,18.2766468" id="Stroke-5" stroke="#3FA9F5" stroke-linecap="round"></path>
            </g>
        </g>
    </g>
</svg>