<?xml version="1.0" encoding="UTF-8"?>
<svg width="28px" height="28px" viewBox="0 0 28 28" version="1.1" xmlns="http://www.w3.org/2000/svg" xmlns:xlink="http://www.w3.org/1999/xlink">
    <!-- Generator: Sketch 51.2 (57519) - http://www.bohemiancoding.com/sketch -->
    <title>项目详情</title>
    <desc>Created with Sketch.</desc>
    <defs></defs>
    <g id="Aurelia-Web-(Light)" stroke="none" stroke-width="1" fill="none" fill-rule="evenodd" stroke-linecap="round">
        <g id="项目详情--" transform="translate(-36.000000, -249.000000)" stroke-width="2">
            <g id="项目详情" transform="translate(36.000000, 249.000000)">
                <path d="M11.8181818,11.8182364 L5.27272727,11.8182364 C3.46563636,11.8182364 2,10.3526 2,8.54550909 L2,5.27278182 C2,3.46514545 3.46563636,2.00005455 5.27272727,2.00005455 L8.54545455,2.00005455 C10.3525455,2.00005455 11.8181818,3.46514545 11.8181818,5.27278182 L11.8181818,11.8182364 Z" id="Stroke-1" stroke="#444444"></path>
                <path d="M11.8181818,16.1818727 L11.8181818,22.7273273 C11.8181818,24.5344182 10.3525455,26.0000545 8.54545455,26.0000545 L5.27272727,26.0000545 C3.46563636,26.0000545 2,24.5344182 2,22.7273273 L2,19.4546 C2,17.6469636 3.46563636,16.1818727 5.27272727,16.1818727 L11.8181818,16.1818727 Z" id="Stroke-3" stroke="#444444"></path>
                <path d="M16.1818182,16.1818727 L22.7272727,16.1818727 C24.5343636,16.1818727 26,17.6469636 26,19.4546 L26,22.7273273 C26,24.5344182 24.5343636,26.0000545 22.7272727,26.0000545 L19.4545455,26.0000545 C17.6474545,26.0000545 16.1818182,24.5344182 16.1818182,22.7273273 L16.1818182,16.1818727 Z" id="Stroke-5" stroke="#444444"></path>
                <path d="M16.1818182,11.8182364 L16.1818182,5.27278182 C16.1818182,3.46514545 17.6474545,2.00005455 19.4545455,2.00005455 L22.7272727,2.00005455 C24.5343636,2.00005455 26,3.46514545 26,5.27278182 L26,8.54550909 C26,10.3526 24.5343636,11.8182364 22.7272727,11.8182364 L16.1818182,11.8182364 Z" id="Stroke-7" stroke="#3FA9F5"></path>
            </g>
        </g>
    </g>
</svg>